<?xml version="1.0" encoding="UTF-8"?><svg xmlns="http://www.w3.org/2000/svg" width="74.9" height="74.9">
<circle cy="37.45" cx="36.972" r="28.563" fill="#EE352E"/>
<path d="m35.11 34.83h0.88c1.68 0 4.76-0.16 4.76-3.84 0-1.04-0.479-3.64-3.56-3.64-3.84 0-3.84 3.64-3.84 4.64h-5.2c0-5.32 3-9.12 9.4-9.12 3.8 0 8.8 1.92 8.8 7.92 0 2.88-1.8 4.68-3.4 5.4v0.08c1 0.28 4.28 1.76 4.28 6.6 0 5.36-3.96 9.16-9.68 9.16-2.68 0-9.88-0.6-9.88-9.479h5.48l-0.04 0.04c0 1.52 0.4 4.96 4.16 4.96 2.24 0 4.2-1.521 4.2-4.681 0-3.88-3.76-4.04-6.36-4.04v-4z" fill="#fff"/>
</svg>
